<?xml version="1.0" standalone="no"?>
<!DOCTYPE svg PUBLIC "-//W3C//DTD SVG 1.1//EN" "http://www.w3.org/Graphics/SVG/1.1/DTD/svg11.dtd" >
<svg xmlns="http://www.w3.org/2000/svg">
<metadata></metadata>
<defs>
<font id="american_captain_patrius_02Rg" horiz-adv-x="1724" >
<font-face units-per-em="2048" ascent="1536" descent="-512" />
<missing-glyph horiz-adv-x="614" />
<glyph horiz-adv-x="0" />
<glyph unicode="&#xd;" horiz-adv-x="458" />
<glyph unicode=" "  horiz-adv-x="614" />
<glyph unicode="&#x09;" horiz-adv-x="614" />
<glyph unicode="&#xa0;" horiz-adv-x="614" />
<glyph unicode="!" horiz-adv-x="634" d="M119 1489h399l-115 -1004h-172zM121 172q0 43 15.5 80t42 64.5t62 43t78.5 15.5t80 -15.5t65 -43t43 -64.5t15 -80q0 -41 -15 -77t-43 -62.5t-65 -42t-80 -15.5q-86 0 -142 57.5t-56 139.5z" />
<glyph unicode="&#x22;" horiz-adv-x="931" d="M102 1550h299l-61 -696h-184zM530 1550h299l-61 -696h-184z" />
<glyph unicode="#" horiz-adv-x="1544" d="M82 465l47 174h293l45 195h-305l47 174h299l113 481h204l-112 -481h274l113 481h205l-113 -481h291l-47 -174h-285l-45 -195h297l-47 -174h-291l-109 -465h-204l108 465h-274l-109 -465h-205l109 465h-299zM627 639h274l45 195h-274z" />
<glyph unicode="$" horiz-adv-x="1071" d="M82 1067q0 123 62.5 180.5t207.5 57.5h109v184h188v-184h246l33 -170h-471q-72 0 -100.5 -11.5t-34.5 -54.5q-2 -10 -3.5 -27.5t3 -36t18.5 -39t45 -36.5l463 -256q51 -29 80.5 -65t43 -75.5t14.5 -85t-3 -92.5q-10 -80 -66.5 -126t-191.5 -46h-76v-184h-188v184h-279 l-43 176h453q47 0 75.5 2.5t43 9.5t18.5 19t4 33q0 16 -10 38.5t-61 51.5l-445 246q-88 47 -111.5 122.5t-23.5 184.5z" />
<glyph unicode="%" horiz-adv-x="1736" d="M92 1079v92q0 160 74 244t217 84h80q145 0 218 -84t73 -244v-92q0 -162 -73 -248t-218 -86h-80q-143 0 -217 86.5t-74 247.5zM307 1079q0 -70 10.5 -107.5t26.5 -56t36.5 -21.5t41.5 -3q20 0 40.5 3t38 21.5t29 56.5t11.5 107v88q0 68 -10.5 106t-27 56.5t-38.5 21.5 t-47 3q-20 0 -40 -3t-35 -21.5t-25.5 -56.5t-10.5 -106v-88zM381 -10l770 1501h203l-766 -1501h-207zM983 326v92q0 160 73.5 243.5t217.5 83.5h80q145 0 218 -83.5t73 -243.5v-92q0 -162 -73 -248t-218 -86h-80q-143 0 -217 86t-74 248zM1198 326q0 -70 10.5 -108 t26.5 -56.5t36.5 -21.5t41.5 -3q20 0 40.5 3t38 21.5t29 56.5t11.5 108v88q0 68 -10.5 105.5t-27 56t-38.5 21.5t-47 3q-20 0 -40 -3t-35 -21.5t-25.5 -56.5t-10.5 -105v-88z" />
<glyph unicode="&#x26;" horiz-adv-x="1757" d="M102 238v411q0 45 14.5 89t52.5 78t102.5 53.5t166.5 15.5l-114 108q-41 41 -66 78t-25 98v125q0 113 63.5 154t172.5 41h877l34 -238h-741q-29 0 -45 -2t-25.5 -11t-12.5 -27.5t-3 -51.5q0 -25 23.5 -50.5t56.5 -57.5l606 -586q31 37 53.5 98.5t36.5 130t19.5 137 t3.5 117.5h254q-4 -190 -43.5 -358t-135.5 -281q51 -68 107.5 -78t134.5 0l31 -225q-29 -10 -71 -15t-77 -5q-92 0 -170.5 33.5t-152.5 107.5q-86 -74 -187.5 -103.5t-244.5 -37.5q-78 -4 -167 -5t-177 3q-111 2 -179.5 17t-106.5 45t-51.5 77t-13.5 115zM387 309 q0 -51 18.5 -77.5t96.5 -30.5q61 -4 142 -5t160 7t146.5 29.5t102.5 64.5l-455 426q-49 6 -96 0q-49 -6 -82 -28.5t-33 -69.5v-316z" />
<glyph unicode="'" horiz-adv-x="503" d="M102 1550h299l-61 -696h-184z" />
<glyph unicode="(" horiz-adv-x="614" d="M94 743q2 223 27.5 389t81 279t146.5 173.5t224 74.5l41 -133q-86 -43 -133 -133t-69.5 -203t-27.5 -230.5t-5 -216.5q0 -98 5 -215.5t27.5 -229.5t69.5 -202t133 -133l-41 -133q-133 14 -226 74.5t-150.5 172t-82 276.5t-20.5 390z" />
<glyph unicode=")" horiz-adv-x="612" d="M0 -37q86 43 133 133t69.5 202t28 229.5t5.5 215.5t-5.5 216t-28 231t-69.5 203t-133 133l41 133q133 -14 224 -74.5t146.5 -173.5t80 -279t28.5 -389q-4 -225 -28.5 -390t-80 -276.5t-146.5 -172t-224 -74.5z" />
<glyph unicode="*" horiz-adv-x="1067" d="M72 1186l63 207l326 -119l-35 346h215l-33 -346l324 119l63 -209l-360 -58l258 -266l-184 -155l-172 296l-177 -296l-184 155l262 266z" />
<glyph unicode="+" horiz-adv-x="1294" d="M92 629l17 225h419v467h238v-467h436l-12 -225h-424v-467h-238v467h-436z" />
<glyph unicode="," horiz-adv-x="600" d="M102 180q0 41 15.5 76t43 60.5t63.5 39t77 13.5q90 -2 143.5 -62.5t53.5 -148.5q0 -35 -12.5 -81t-34 -95.5t-52 -97.5t-67.5 -85l-53 23q20 35 34.5 83t18.5 95q-106 -18 -168 37t-62 143z" />
<glyph unicode="-" horiz-adv-x="935" d="M102 571l27 222h705l-25 -222h-707z" />
<glyph unicode="." horiz-adv-x="606" d="M102 176q0 43 15.5 80t42 64.5t62.5 43t79 15.5t80 -15.5t64.5 -43t43 -64.5t15.5 -80q0 -41 -15.5 -77t-43 -62.5t-64.5 -41.5t-80 -15q-86 0 -142.5 57t-56.5 139z" />
<glyph unicode="/" horiz-adv-x="843" d="M35 -109l504 1706h270l-504 -1706h-270z" />
<glyph unicode="0" horiz-adv-x="1556" d="M102 307v869q0 164 96.5 238.5t258.5 74.5h643q160 0 257 -75t97 -238v-869q0 -162 -90 -234.5t-246 -72.5h-682q-72 0 -132 16.5t-105 52t-71 94t-26 144.5zM383 334q0 -109 119 -109h555q55 0 86 25.5t31 83.5v819q0 57 -31 84t-86 27h-555q-119 0 -119 -111v-819z" />
<glyph unicode="1" horiz-adv-x="1046" d="M102 0v227h299v1024h-295v172q166 -4 251 13.5t120 52.5h203v-1262h285v-227h-863z" />
<glyph unicode="2" horiz-adv-x="1476" d="M102 0v188q0 115 18.5 200t62.5 146.5t117 104.5t181 74l420 118q63 18 100 32t56.5 32t26 46t6.5 73v153q0 53 -17.5 71.5t-71.5 18.5h-516q-53 0 -74.5 -18t-21.5 -72v-137h-260v223q0 127 75 181.5t202 54.5h692q127 0 201.5 -54.5t74.5 -181.5v-335 q0 -100 -63.5 -163t-210.5 -106l-408 -121q-86 -25 -142 -44t-90 -48.5t-48.5 -78t-12.5 -130.5h961l-39 -227h-1219z" />
<glyph unicode="3" horiz-adv-x="1476" d="M102 236v174h260v-93q0 -53 16.5 -71.5t70.5 -18.5h534q53 0 72.5 18.5t19.5 71.5v226q0 51 -21.5 66.5t-74.5 15.5h-653v211h641q68 0 90 24.5t22 71.5v235q0 53 -17.5 71.5t-70.5 18.5h-532q-53 0 -75 -18t-22 -72v-137h-256v223q0 127 75 181.5t202 54.5h698 q127 0 202 -54.5t75 -181.5v-309q0 -16 -4 -48t-20.5 -64.5t-52.5 -57t-97 -26.5q57 0 94 -12.5t58.5 -32t29.5 -46t8 -53.5v-368q0 -129 -67.5 -182.5t-196.5 -53.5h-731q-127 0 -202 54.5t-75 181.5z" />
<glyph unicode="4" horiz-adv-x="1689" d="M82 336v303l940 850h408v-934h178v-219h-178v-336h-291v336h-1057zM360 555h779v727l-779 -702v-25z" />
<glyph unicode="5" horiz-adv-x="1466" d="M102 236v174h260v-93q0 -53 16.5 -71.5t70.5 -18.5h536q53 0 72.5 18.5t19.5 71.5v291q0 47 -18.5 59.5t-67.5 12.5h-848l-32 31v778h1175l35 -238h-928v-370h781q92 0 141 -47.5t47 -135.5v-462q0 -127 -76 -181.5t-203 -54.5h-704q-127 0 -202 54.5t-75 181.5z" />
<glyph unicode="6" horiz-adv-x="1474" d="M102 188v1092q0 111 64.5 160t175.5 49h942l35 -238h-862q-39 0 -55.5 -8t-18.5 -43v-285h815q51 0 84 -14t53.5 -36.5t28.5 -51.5t8 -59v-574q0 -86 -53 -133t-148 -47h-833q-115 0 -175.5 43t-60.5 145zM389 313q0 -53 17.5 -70.5t58.5 -17.5h536q61 0 79 21.5t18 81.5 v301q0 59 -21.5 72.5t-75.5 13.5h-612v-402z" />
<glyph unicode="7" horiz-adv-x="1497" d="M61 1251l56 238h1325l-1014 -1489h-330l873 1251h-910z" />
<glyph unicode="8" horiz-adv-x="1548" d="M102 213v381q0 35 9.5 66.5t34 57t68.5 42t114 22.5q-78 6 -119 31t-58.5 55.5t-19.5 62.5t-2 50v307q0 86 56.5 143.5t162.5 57.5h850q106 0 162.5 -57.5t56.5 -143.5v-307q0 -18 -2 -50t-19.5 -62.5t-58.5 -55.5t-118 -31q70 -6 113.5 -22.5t69 -42t35 -57t9.5 -66.5 v-381q0 -96 -57.5 -154.5t-153.5 -58.5h-922q-96 0 -153.5 58.5t-57.5 154.5zM395 311q0 -53 18.5 -69.5t71.5 -16.5h578q53 0 71.5 16.5t18.5 69.5v277q0 51 -23.5 70.5t-62.5 21.5q-18 0 -63.5 1t-103.5 1t-124.5 1t-125 0t-103 -2t-60.5 -1q-41 -4 -66.5 -21.5 t-25.5 -70.5v-277zM412 985q0 -35 7 -54.5t24.5 -28.5t46 -12t69.5 -3h430q82 0 115 15.5t33 82.5v199q0 63 -26 77.5t-75 14.5h-522q-49 0 -75.5 -14.5t-26.5 -77.5v-199z" />
<glyph unicode="9" horiz-adv-x="1486" d="M102 717v606q0 70 49.5 118t127.5 48h909q88 0 142 -41t54 -125v-1108q0 -111 -66.5 -163t-195.5 -52h-921l-41 227h839h37t32 6.5t21.5 22.5t8.5 49v252h-819q-92 0 -134.5 44t-42.5 116zM385 817q0 -29 6 -43t17.5 -19t28 -4t38.5 1h617v438q0 47 -21.5 60.5 t-56.5 13.5h-541q-51 0 -69.5 -16.5t-18.5 -59.5v-371z" />
<glyph unicode=":" horiz-adv-x="606" d="M102 176q0 43 15.5 80t42 64.5t62.5 43t79 15.5t80 -15.5t64.5 -43t43 -64.5t15.5 -80q0 -41 -15.5 -77t-43 -62.5t-64.5 -41.5t-80 -15q-86 0 -142.5 57t-56.5 139zM102 938q0 43 15.5 80t42 64.5t62.5 43t79 15.5t80 -15.5t64.5 -43t43 -64.5t15.5 -80q0 -41 -15.5 -77 t-43 -62.5t-64.5 -42t-80 -15.5q-86 0 -142.5 57.5t-56.5 139.5z" />
<glyph unicode=";" horiz-adv-x="606" d="M102 938q0 43 15.5 80t42 64.5t62.5 43t79 15.5t80 -15.5t64.5 -43t43 -64.5t15.5 -80q0 -41 -15.5 -77t-43 -62.5t-64.5 -42t-80 -15.5q-86 0 -142.5 57.5t-56.5 139.5zM106 180q0 41 15.5 76t43.5 60.5t63.5 39t76.5 13.5q90 -2 143.5 -62.5t53.5 -148.5 q0 -35 -12.5 -81t-34 -95.5t-52 -97.5t-67.5 -85l-53 23q20 35 34.5 83t18.5 95q-106 -18 -168 37t-62 143z" />
<glyph unicode="&#x3c;" horiz-adv-x="929" d="M82 614v2v265l745 458v-266l-522 -291v-69l522 -291v-266z" />
<glyph unicode="=" horiz-adv-x="1144" d="M102 428l15 217h925l-12 -217h-928zM102 840l15 219h925l-12 -219h-928z" />
<glyph unicode="&#x3e;" horiz-adv-x="929" d="M102 156v266l523 291v69l-523 291v266l746 -458v-265v-2z" />
<glyph unicode="?" horiz-adv-x="1460" d="M82 1247l35 242h1016q74 0 120.5 -14.5t74.5 -42t39 -65.5t11 -85v-375q0 -27 -5 -62.5t-29.5 -67.5t-75.5 -54.5t-142 -22.5h-342q-29 0 -45 -2t-24 -9t-10.5 -21.5t-2.5 -36.5v-146h-270v299q0 23 5 44.5t19.5 39t39 28.5t63.5 11h426q74 0 88 24.5t14 80.5v133 q0 63 -26.5 82.5t-108.5 19.5h-870zM365 176q0 43 15 80t42 64.5t62.5 43t78.5 15.5t80 -15.5t64.5 -43t43 -64.5t15.5 -80q0 -41 -15.5 -77t-43 -62.5t-64.5 -41.5t-80 -15q-86 0 -142 57t-56 139z" />
<glyph unicode="@" horiz-adv-x="1755" d="M102 203v1087q0 57 17.5 95t47.5 60.5t67.5 33t78.5 10.5h1172q27 0 56.5 -7t54 -24.5t41 -46.5t16.5 -74v-1022h-252v95l-90 -95h-523q-84 0 -133 32t-49 122v483q0 68 42 110t124 42h627v96q0 41 -14.5 59.5t-63.5 18.5h-852q-63 0 -78.5 -21.5t-13.5 -62.5v-928 q0 -43 16.5 -64.5t69.5 -21.5h1020l-39 -180h-1145q-104 0 -150.5 55.5t-46.5 147.5zM852 567q0 -41 21.5 -50t58.5 -9h463v420h-455q-39 0 -63.5 -10.5t-24.5 -59.5v-291z" />
<glyph unicode="A" d="M57 0l490 1489h635l485 -1489h-311l-96 301h-795l-96 -301h-312zM528 514h668l-233 758h-199z" />
<glyph unicode="B" horiz-adv-x="1533" d="M102 0v1489h1063q137 0 189.5 -60.5t52.5 -162.5v-332q0 -33 -8 -64.5t-29.5 -56.5t-57.5 -40t-89 -17q61 0 101 -18.5t64.5 -46t34 -61.5t9.5 -65v-377q0 -94 -58.5 -141t-146.5 -47h-1125zM391 227h656q47 0 68.5 15.5t21.5 62.5v252q0 53 -23.5 69.5t-81.5 16.5h-641 v-416zM391 844h635q66 0 83 25.5t17 62.5v246q0 31 -8 48t-21.5 25.5t-33 10.5t-41.5 2h-631v-420z" />
<glyph unicode="C" horiz-adv-x="1447" d="M102 248v1042q0 57 17.5 95t47.5 60.5t67.5 33t78.5 10.5h875q27 0 56.5 -7t54 -24.5t41 -46.5t16.5 -74v-307h-275v154q0 47 -12 60t-63 13h-514q-57 0 -74 -16t-17 -67v-867q0 -49 17.5 -64.5t70.5 -15.5h844l-41 -227h-948q-139 0 -190.5 60.5t-51.5 187.5z" />
<glyph unicode="D" horiz-adv-x="1550" d="M102 0v1489h1110q111 0 173.5 -66.5t62.5 -165.5v-1056q0 -37 -14.5 -73t-44 -64.5t-74.5 -46t-105 -17.5h-1108zM395 225h649q39 0 60.5 6.5t32 19.5t13.5 33.5t3 47.5v825q0 55 -18.5 80t-92.5 25h-647v-1037z" />
<glyph unicode="E" horiz-adv-x="1372" d="M102 0v1489h1139l35 -238h-879v-415h850l-18 -213h-832v-396h879l-25 -227h-1149z" />
<glyph unicode="F" horiz-adv-x="1355" d="M102 0v1489h1137l35 -238h-875v-417h844l-18 -211h-826v-623h-297z" />
<glyph unicode="G" horiz-adv-x="1546" d="M102 223v1092q0 174 177 174h1015l35 -238h-837q-57 0 -75 -18.5t-18 -67.5v-852q0 -51 19.5 -68.5t73.5 -17.5h665v416h-405v211h692v-854h-287v104l-125 -104h-700q-94 0 -162 54.5t-68 168.5z" />
<glyph unicode="H" horiz-adv-x="1607" d="M102 0v1489h297v-655h809v655h297v-1489h-297v623h-809v-623h-297z" />
<glyph unicode="I" horiz-adv-x="520" d="M113 0v1489h295v-1489h-295z" />
<glyph unicode="J" horiz-adv-x="1490" d="M92 233v431h277v-357q0 -82 82 -82h544q66 0 82.5 25.5t16.5 77.5v923h-553l34 238h814v-1237q0 -55 -18.5 -101.5t-50.5 -80t-75 -52t-94 -18.5h-832q-115 0 -171 67.5t-56 165.5z" />
<glyph unicode="K" horiz-adv-x="1540" d="M102 0v1489h293v-660h463l303 660h291l-307 -660q70 0 115 -17t72.5 -47t38.5 -68t15 -76l50 -621h-297l-35 512q-4 66 -40 88.5t-97 22.5h-572v-623h-293z" />
<glyph unicode="L" horiz-adv-x="1290" d="M102 0v1489h299v-1262h807l-22 -227h-1084z" />
<glyph unicode="M" horiz-adv-x="1923" d="M102 0v1489h367l492 -862l485 862h375v-1489h-295v1116l-565 -995l-574 997v-1118h-285z" />
<glyph unicode="N" horiz-adv-x="1570" d="M102 0v1489h236l854 -940v940h276v-1489h-276v158l-815 868v-1026h-275z" />
<glyph unicode="O" horiz-adv-x="1597" d="M102 264v961q0 74 21.5 125t61.5 81.5t96.5 44t126.5 13.5h782q70 0 126 -13.5t96 -44t61.5 -82t21.5 -124.5v-961q0 -74 -21.5 -125t-61.5 -81.5t-96 -44t-126 -13.5h-782q-70 0 -126.5 13.5t-96.5 44t-61.5 81.5t-21.5 125zM397 309q0 -51 17.5 -67.5t70.5 -16.5h619 q53 0 74.5 17.5t21.5 68.5v867q0 51 -21.5 68.5t-74.5 17.5h-619q-53 0 -70.5 -16.5t-17.5 -67.5v-871z" />
<glyph unicode="P" horiz-adv-x="1515" d="M102 0v1489h1082q127 0 178 -57.5t51 -157.5v-670q0 -86 -55 -135t-197 -49h-768v-420h-291zM393 639h660q51 0 69.5 13.5t18.5 54.5v477q0 39 -13.5 59.5t-70.5 20.5h-664v-625z" />
<glyph unicode="Q" horiz-adv-x="1640" d="M102 264v961q0 74 21.5 125t61.5 81.5t96.5 44t126.5 13.5h825q70 0 126 -13.5t96 -44t61.5 -82t21.5 -124.5v-961q0 -74 -21.5 -125t-61.5 -81.5t-96 -44t-126 -13.5h-299v-201h-232v201h-294q-70 0 -126.5 13.5t-96.5 44t-61.5 81.5t-21.5 125zM397 309 q0 -51 17.5 -67.5t70.5 -16.5h217v334h232v-334h213q53 0 74.5 17.5t21.5 68.5v867q0 51 -21.5 68.5t-74.5 17.5h-662q-53 0 -70.5 -16.5t-17.5 -67.5v-871z" />
<glyph unicode="R" horiz-adv-x="1540" d="M102 0v1489h1074q74 0 122 -18.5t76.5 -51.5t40.5 -78t12 -100v-414q0 -29 -12 -62.5t-42 -61t-76 -45t-113 -17.5q102 -4 162.5 -54t64.5 -138l33 -449h-307l-19 317q-4 61 -12 105.5t-30.5 74t-63.5 44t-109 14.5h-506v-555h-295zM397 768h654q37 0 54 9t25.5 24.5 t8.5 34v34.5v312q0 82 -82 82h-660v-496z" />
<glyph unicode="S" horiz-adv-x="1456" d="M102 711v604q0 76 53.5 125t151.5 49h842q98 0 147.5 -47t49.5 -127v-285h-275v156q0 47 -15.5 59t-66.5 12h-512q-49 0 -65.5 -14t-16.5 -61v-420h738q68 0 110.5 -13.5t67 -41t34 -67.5t9.5 -95v-375q0 -72 -54.5 -121t-152.5 -49h-981l-39 227h864q53 0 65.5 23.5 t12.5 60.5v162q0 47 -14.5 63.5t-69.5 16.5h-725q-72 0 -115 40t-43 118z" />
<glyph unicode="T" horiz-adv-x="1452" d="M61 1251l52 238h1278l-52 -238h-469v-1251h-297v1251h-512z" />
<glyph unicode="U" horiz-adv-x="1570" d="M102 293v1196h301v-1178q0 -51 18.5 -67.5t72.5 -16.5h577q53 0 74.5 17.5t21.5 68.5v1176h301v-1196q0 -150 -77.5 -221.5t-216.5 -71.5h-777q-139 0 -217 71.5t-78 221.5z" />
<glyph unicode="V" horiz-adv-x="1662" d="M61 1489h301l392 -1262h157l389 1262h302l-480 -1489h-577z" />
<glyph unicode="W" horiz-adv-x="2375" d="M61 1489h304l235 -1262h154l311 1262h246l311 -1262h154l235 1262h303l-311 -1489h-592l-223 1012l-223 -1012h-592z" />
<glyph unicode="X" horiz-adv-x="1585" d="M61 0l193 594q31 94 75 122.5t97 28.5q-27 0 -51.5 5.5t-47 21.5t-41 45t-32.5 78l-182 594h305l162 -580q10 -31 21 -43t48 -12h369q35 0 47 12.5t23 42.5l161 580h305l-182 -594q-14 -49 -32.5 -78t-41 -45t-47 -21.5t-51.5 -5.5q53 0 97 -28.5t75 -122.5l193 -594 h-312l-165 569q-10 31 -20.5 44.5t-49.5 13.5h-369q-41 0 -50 -13.5t-19 -44.5l-166 -569h-312z" />
<glyph unicode="Y" horiz-adv-x="1609" d="M61 1489h299l152 -766q6 -37 19.5 -50.5t60.5 -13.5h508l149 830h299l-270 -1329q-16 -74 -67.5 -117t-137.5 -43h-706l-60 227h623q47 0 66.5 11.5t29.5 52.5l33 151h-602q-27 0 -56.5 6.5t-56.5 23.5t-48.5 51t-31.5 89z" />
<glyph unicode="Z" horiz-adv-x="1386" d="M47 0l830 1251h-773l68 238h1167l-802 -1262h720l-47 -227h-1163z" />
<glyph unicode="[" horiz-adv-x="571" d="M102 -227v1947h408v-149h-135v-1653h135v-145h-408z" />
<glyph unicode="\" horiz-adv-x="843" d="M35 1597h270l504 -1706h-270z" />
<glyph unicode="]" horiz-adv-x="571" d="M61 -82h136v1653h-136v149h408v-1947h-408v145z" />
<glyph unicode="^" horiz-adv-x="1101" d="M113 1591l311 297h254l311 -297h-252l-166 185h-41l-165 -185h-252z" />
<glyph unicode="_" horiz-adv-x="1269" d="M72 -47h1126v-221h-1126v221z" />
<glyph unicode="`" horiz-adv-x="784" d="M102 1886h310l260 -295h-195z" />
<glyph unicode="a" d="M57 0l490 1489h635l485 -1489h-311l-96 301h-795l-96 -301h-312zM528 514h668l-233 758h-199z" />
<glyph unicode="b" horiz-adv-x="1533" d="M102 0v1489h1063q137 0 189.5 -60.5t52.5 -162.5v-332q0 -33 -8 -64.5t-29.5 -56.5t-57.5 -40t-89 -17q61 0 101 -18.5t64.5 -46t34 -61.5t9.5 -65v-377q0 -94 -58.5 -141t-146.5 -47h-1125zM391 227h656q47 0 68.5 15.5t21.5 62.5v252q0 53 -23.5 69.5t-81.5 16.5h-641 v-416zM391 844h635q66 0 83 25.5t17 62.5v246q0 31 -8 48t-21.5 25.5t-33 10.5t-41.5 2h-631v-420z" />
<glyph unicode="c" horiz-adv-x="1447" d="M102 248v1042q0 57 17.5 95t47.5 60.5t67.5 33t78.5 10.5h875q27 0 56.5 -7t54 -24.5t41 -46.5t16.5 -74v-307h-275v154q0 47 -12 60t-63 13h-514q-57 0 -74 -16t-17 -67v-867q0 -49 17.5 -64.5t70.5 -15.5h844l-41 -227h-948q-139 0 -190.5 60.5t-51.5 187.5z" />
<glyph unicode="d" horiz-adv-x="1550" d="M102 0v1489h1110q111 0 173.5 -66.5t62.5 -165.5v-1056q0 -37 -14.5 -73t-44 -64.5t-74.5 -46t-105 -17.5h-1108zM395 225h649q39 0 60.5 6.5t32 19.5t13.5 33.5t3 47.5v825q0 55 -18.5 80t-92.5 25h-647v-1037z" />
<glyph unicode="e" horiz-adv-x="1372" d="M102 0v1489h1139l35 -238h-879v-415h850l-18 -213h-832v-396h879l-25 -227h-1149z" />
<glyph unicode="f" horiz-adv-x="1355" d="M102 0v1489h1137l35 -238h-875v-417h844l-18 -211h-826v-623h-297z" />
<glyph unicode="g" horiz-adv-x="1546" d="M102 223v1092q0 174 177 174h1015l35 -238h-837q-57 0 -75 -18.5t-18 -67.5v-852q0 -51 19.5 -68.5t73.5 -17.5h665v416h-405v211h692v-854h-287v104l-125 -104h-700q-94 0 -162 54.5t-68 168.5z" />
<glyph unicode="h" horiz-adv-x="1607" d="M102 0v1489h297v-655h809v655h297v-1489h-297v623h-809v-623h-297z" />
<glyph unicode="i" horiz-adv-x="520" d="M113 0v1489h295v-1489h-295z" />
<glyph unicode="j" horiz-adv-x="1490" d="M92 233v431h277v-357q0 -82 82 -82h544q66 0 82.5 25.5t16.5 77.5v923h-553l34 238h814v-1237q0 -55 -18.5 -101.5t-50.5 -80t-75 -52t-94 -18.5h-832q-115 0 -171 67.5t-56 165.5z" />
<glyph unicode="k" horiz-adv-x="1540" d="M102 0v1489h293v-660h463l303 660h291l-307 -660q70 0 115 -17t72.5 -47t38.5 -68t15 -76l50 -621h-297l-35 512q-4 66 -40 88.5t-97 22.5h-572v-623h-293z" />
<glyph unicode="l" horiz-adv-x="1290" d="M102 0v1489h299v-1262h807l-22 -227h-1084z" />
<glyph unicode="m" horiz-adv-x="1923" d="M102 0v1489h367l492 -862l485 862h375v-1489h-295v1116l-565 -995l-574 997v-1118h-285z" />
<glyph unicode="n" horiz-adv-x="1570" d="M102 0v1489h236l854 -940v940h276v-1489h-276v158l-815 868v-1026h-275z" />
<glyph unicode="o" horiz-adv-x="1597" d="M102 264v961q0 74 21.5 125t61.5 81.5t96.5 44t126.5 13.5h782q70 0 126 -13.5t96 -44t61.5 -82t21.5 -124.5v-961q0 -74 -21.5 -125t-61.5 -81.5t-96 -44t-126 -13.5h-782q-70 0 -126.5 13.5t-96.5 44t-61.5 81.5t-21.5 125zM397 309q0 -51 17.5 -67.5t70.5 -16.5h619 q53 0 74.5 17.5t21.5 68.5v867q0 51 -21.5 68.5t-74.5 17.5h-619q-53 0 -70.5 -16.5t-17.5 -67.5v-871z" />
<glyph unicode="p" horiz-adv-x="1515" d="M102 0v1489h1082q127 0 178 -57.5t51 -157.5v-670q0 -86 -55 -135t-197 -49h-768v-420h-291zM393 639h660q51 0 69.5 13.5t18.5 54.5v477q0 39 -13.5 59.5t-70.5 20.5h-664v-625z" />
<glyph unicode="q" horiz-adv-x="1640" d="M102 264v961q0 74 21.5 125t61.5 81.5t96.5 44t126.5 13.5h825q70 0 126 -13.5t96 -44t61.5 -82t21.5 -124.5v-961q0 -74 -21.5 -125t-61.5 -81.5t-96 -44t-126 -13.5h-299v-201h-232v201h-294q-70 0 -126.5 13.5t-96.5 44t-61.5 81.5t-21.5 125zM397 309 q0 -51 17.5 -67.5t70.5 -16.5h217v334h232v-334h213q53 0 74.5 17.5t21.5 68.5v867q0 51 -21.5 68.5t-74.5 17.5h-662q-53 0 -70.5 -16.5t-17.5 -67.5v-871z" />
<glyph unicode="r" horiz-adv-x="1540" d="M102 0v1489h1074q74 0 122 -18.5t76.5 -51.5t40.5 -78t12 -100v-414q0 -29 -12 -62.5t-42 -61t-76 -45t-113 -17.5q102 -4 162.5 -54t64.5 -138l33 -449h-307l-19 317q-4 61 -12 105.5t-30.5 74t-63.5 44t-109 14.5h-506v-555h-295zM397 768h654q37 0 54 9t25.5 24.5 t8.5 34v34.5v312q0 82 -82 82h-660v-496z" />
<glyph unicode="s" horiz-adv-x="1456" d="M102 711v604q0 76 53.5 125t151.5 49h842q98 0 147.5 -47t49.5 -127v-285h-275v156q0 47 -15.5 59t-66.5 12h-512q-49 0 -65.5 -14t-16.5 -61v-420h738q68 0 110.5 -13.5t67 -41t34 -67.5t9.5 -95v-375q0 -72 -54.5 -121t-152.5 -49h-981l-39 227h864q53 0 65.5 23.5 t12.5 60.5v162q0 47 -14.5 63.5t-69.5 16.5h-725q-72 0 -115 40t-43 118z" />
<glyph unicode="t" horiz-adv-x="1452" d="M61 1251l52 238h1278l-52 -238h-469v-1251h-297v1251h-512z" />
<glyph unicode="u" horiz-adv-x="1570" d="M102 293v1196h301v-1178q0 -51 18.5 -67.5t72.5 -16.5h577q53 0 74.5 17.5t21.5 68.5v1176h301v-1196q0 -150 -77.5 -221.5t-216.5 -71.5h-777q-139 0 -217 71.5t-78 221.5z" />
<glyph unicode="v" horiz-adv-x="1662" d="M61 1489h301l392 -1262h157l389 1262h302l-480 -1489h-577z" />
<glyph unicode="w" horiz-adv-x="2375" d="M61 1489h304l235 -1262h154l311 1262h246l311 -1262h154l235 1262h303l-311 -1489h-592l-223 1012l-223 -1012h-592z" />
<glyph unicode="x" horiz-adv-x="1585" d="M61 0l193 594q31 94 75 122.5t97 28.5q-27 0 -51.5 5.5t-47 21.5t-41 45t-32.5 78l-182 594h305l162 -580q10 -31 21 -43t48 -12h369q35 0 47 12.5t23 42.5l161 580h305l-182 -594q-14 -49 -32.5 -78t-41 -45t-47 -21.5t-51.5 -5.5q53 0 97 -28.5t75 -122.5l193 -594 h-312l-165 569q-10 31 -20.5 44.5t-49.5 13.5h-369q-41 0 -50 -13.5t-19 -44.5l-166 -569h-312z" />
<glyph unicode="y" horiz-adv-x="1609" d="M61 1489h299l152 -766q6 -37 19.5 -50.5t60.5 -13.5h508l149 830h299l-270 -1329q-16 -74 -67.5 -117t-137.5 -43h-706l-60 227h623q47 0 66.5 11.5t29.5 52.5l33 151h-602q-27 0 -56.5 6.5t-56.5 23.5t-48.5 51t-31.5 89z" />
<glyph unicode="z" horiz-adv-x="1386" d="M47 0l830 1251h-773l68 238h1167l-802 -1262h720l-47 -227h-1163z" />
<glyph unicode="{" horiz-adv-x="692" d="M45 684v143q63 -2 113.5 20.5t81 69t39 117t-10.5 162.5q-35 168 1 275.5t116 165t191.5 70.5t228.5 -7v-96q-84 -6 -134 -23.5t-77 -48.5t-35 -73t-7 -97t6 -121.5t5 -144.5q-4 -127 -72.5 -218t-203.5 -120q59 -6 109 -37t87 -78t57.5 -105.5t22.5 -121.5 q0 -78 -5 -144.5t-6 -122t7 -97.5t35 -72.5t77 -48t134 -21.5v-98q-117 -20 -228.5 -7t-191.5 71t-116 164.5t-1 274.5q18 92 10 162t-38.5 116t-80.5 68.5t-114 22.5z" />
<glyph unicode="|" horiz-adv-x="483" d="M102 -461v2075h279v-2075h-279z" />
<glyph unicode="}" horiz-adv-x="692" d="M-113 -90q125 6 178.5 42t66.5 100.5t5 155.5t-8 208q2 63 22.5 121.5t57.5 105.5t87.5 78t109.5 37q-135 29 -204 120t-73 218q0 117 8 208t-5 155.5t-66.5 100t-178.5 44.5v96q117 20 228.5 7t191.5 -70.5t116 -165t1 -275.5q-18 -92 -10 -162.5t38.5 -117t81 -69 t113.5 -20.5v-143q-63 0 -113.5 -22.5t-81 -68.5t-38.5 -115.5t10 -162.5q35 -168 -1 -274.5t-116 -164.5t-191.5 -71.5t-228.5 7.5v98z" />
<glyph unicode="~" horiz-adv-x="1001" d="M82 1609.5v16.5q0 117 51 174.5t137 57.5q55 0 113.5 -11.5t115 -27t111 -29.5t103.5 -21q39 -6 54 8.5t15 57.5v31h133q2 -16 3.5 -28.5t1.5 -27.5q0 -90 -39 -149t-144 -59q-47 0 -100 10t-108.5 24.5t-113 29.5t-114.5 26q-16 4 -35.5 3t-29.5 -14 q-10 -10 -12.5 -28.5t-2.5 -38.5v-23h-137q-2 10 -2 18.5z" />
<glyph unicode="&#xa1;" horiz-adv-x="628" d="M113 -242l112 1004h172l115 -1004h-399zM115 1075q0 82 56 139.5t142 57.5q43 0 80 -15.5t64.5 -42t43 -62.5t15.5 -77q0 -43 -15.5 -80t-43 -64.5t-64.5 -43t-80 -15.5t-78.5 15.5t-62.5 43t-42 64.5t-15 80z" />
<glyph unicode="&#xa2;" horiz-adv-x="968" d="M102 418v657q0 53 33 89t113 36h211v287h135v-287h258l25 -194h-445q-59 0 -72.5 -15.5t-13.5 -60.5v-381q0 -41 10.5 -56.5t61.5 -15.5h459l-25 -186h-258v-291h-135v291h-238q-49 0 -84 24.5t-35 102.5z" />
<glyph unicode="&#xa3;" horiz-adv-x="1554" d="M92 571l31 177h51v542q0 57 17.5 95t47 60.5t67.5 33t79 10.5h891q27 0 57.5 -7t57 -24.5t43 -46.5t16.5 -74v-307h-270v154q0 47 -13.5 60t-64.5 13h-549q-49 0 -67.5 -13t-18.5 -62v-434h821l-39 -177h-782v-344h1001l-38 -227h-1319v229h63v342h-82z" />
<glyph unicode="&#xa4;" horiz-adv-x="1351" d="M82 319l188 199q-23 49 -37 105.5t-10 119.5q2 47 15.5 95.5t35.5 91.5l-192 203l192 188l187 -197q47 29 101 44.5t114 17.5q119 -2 217 -58l182 193l195 -188l-193 -199q25 -47 39 -97.5t14 -101.5q-4 -123 -55 -215l195 -201l-195 -186l-192 197q-113 -59 -238 -60 q-53 0 -100 14.5t-90 37.5l-181 -189zM440 733q0 -49 15.5 -93t45 -76t69.5 -51t87 -19t91.5 16t80 47t57 75t23.5 99q0 43 -17.5 84t-48 74t-73.5 54.5t-94 23.5q-49 -2 -91 -21.5t-73 -52.5t-50.5 -74t-21.5 -86z" />
<glyph unicode="&#xa5;" horiz-adv-x="1808" d="M61 1489h308l534 -768l533 768h311l-668 -926h457l-4 -129h-477v-106h481l-4 -127h-477v-201h-297v201h-482l7 127h475v106h-482l7 129h450z" />
<glyph unicode="&#xa6;" horiz-adv-x="483" d="M102 375h279v-836h-279v836zM102 674v837h279v-837h-279z" />
<glyph unicode="&#xa7;" horiz-adv-x="1423" d="M82 311v428q0 72 48 120t136 48v416q0 72 49.5 119t137.5 47h823l35 -215h-721q-49 0 -61.5 -10.5t-12.5 -59.5v-237q0 -35 8 -46.5t37 -13.5h582q61 0 99 -11t60.5 -33.5t30.5 -59.5t8 -86v-432q0 -66 -49 -114t-135 -50v-6v-414q0 -66 -52 -114t-140 -48h-818l-34 205 h723q49 0 60 17.5t11 52.5v225q0 43 -11 59.5t-60 16.5h-551q-121 0 -162 48t-41 148zM332 360q0 -12 2 -21t4 -15h682q49 0 60.5 16t11.5 51v307h-682q-49 0 -63.5 -10t-14.5 -57v-271z" />
<glyph unicode="&#xa8;" horiz-adv-x="1011" d="M123 1739q0 68 46 113.5t112 45.5t112.5 -46t46.5 -113q0 -31 -12 -59.5t-33.5 -50t-51.5 -35t-62 -13.5q-66 0 -112 47t-46 111zM571 1739q0 68 47.5 113.5t112.5 45.5q66 0 112 -46t46 -113q0 -31 -12.5 -59.5t-34 -50t-50 -35t-61.5 -13.5q-66 0 -113 47.5t-47 110.5z " />
<glyph unicode="&#xa9;" horiz-adv-x="1675" d="M82 737q0 162 60.5 300.5t165 238.5t241.5 156.5t291 56.5q152 0 289 -56.5t240.5 -156.5t163.5 -238.5t60 -300.5q0 -166 -60 -304t-163.5 -239.5t-241 -157.5t-288.5 -56q-154 0 -291 56t-241.5 157.5t-165 239.5t-60.5 304zM233 737q0 -137 47.5 -251.5t128 -198.5 t191.5 -131t240 -47q127 0 236.5 47t191.5 131t128 198.5t46 251.5q0 133 -46 248t-128 199t-191.5 131t-236.5 47q-129 0 -240 -47t-191.5 -131t-128 -199t-47.5 -248zM422 739q0 98 29.5 182.5t87 145.5t137.5 96t182 35q143 0 246.5 -80t126.5 -233h-133q-16 84 -81 134 t-157 50q-70 0 -123 -25.5t-90 -69.5t-55.5 -103.5t-18.5 -129.5q0 -68 20.5 -128t58.5 -107t91.5 -75t120.5 -28q94 0 157.5 53.5t76.5 139.5h135q-14 -74 -48 -134.5t-82 -101.5t-108.5 -63.5t-130.5 -22.5q-100 0 -182 36t-139.5 98.5t-89 147.5t-31.5 183z" />
<glyph unicode="&#xaa;" horiz-adv-x="1167" d="M92 678v313q0 43 24.5 69.5t61.5 33.5l641 98v43q0 41 -14 53t-57 12h-598l30 189h752q63 0 98 -29.5t35 -89.5v-842h-240v105l-116 -105h-439q-74 0 -126 34t-52 116zM338 774q0 -39 15.5 -49t49.5 -10h416v327l-424 -63q-37 -6 -47 -29.5t-10 -46.5v-129z" />
<glyph unicode="&#xab;" horiz-adv-x="1099" d="M72 436v246l483 469v-309l-262 -244v-78q66 -59 132.5 -117.5t129.5 -117.5v-312zM524 436v246l484 469v-309l-263 -244v-78q66 -59 132.5 -117.5t130.5 -117.5v-312z" />
<glyph unicode="&#xac;" horiz-adv-x="1210" d="M82 670v239h1046v-614h-241v375h-805z" />
<glyph unicode="&#xad;" horiz-adv-x="1112" d="M102 645l11 199h897l-13 -199h-895z" />
<glyph unicode="&#xae;" horiz-adv-x="1695" d="M82 750q0 164 61.5 303t167 240.5t245.5 158.5t296 57q154 0 292 -57t242.5 -158.5t166 -241t61.5 -302.5q0 -168 -61.5 -309.5t-166 -244t-242.5 -159.5t-292 -57q-156 0 -296 57t-245.5 159.5t-167 244t-61.5 309.5zM236 750q0 -139 47 -257t130 -203t195.5 -132 t243.5 -47q129 0 239.5 47t192.5 132t129 202.5t47 257.5q0 135 -47 250.5t-129 199.5t-192.5 132t-239.5 48q-131 0 -243.5 -48t-195.5 -132t-130 -199.5t-47 -250.5zM557 305v883h334q154 0 229.5 -60.5t75.5 -189.5q-4 -119 -65.5 -176t-157.5 -70l248 -387h-148 l-235 383h-152v-383h-129zM686 797h164q41 0 80 4t68.5 18.5t48 44t18.5 82.5q0 43 -17.5 69.5t-45 42t-62.5 20.5t-68 5h-186v-286z" />
<glyph unicode="&#xaf;" horiz-adv-x="1003" d="M82 1591l63 195h715l62 -195h-840z" />
<glyph unicode="&#xb0;" horiz-adv-x="768" d="M61 1243q0 68 26 126t71 102.5t103 70t126 25.5q66 0 124 -25.5t101 -70t69 -102.5t26 -126q0 -66 -26 -124t-69 -101t-101 -68.5t-124 -25.5q-68 0 -126 25.5t-103 68.5t-71 101t-26 124zM256 1249q0 -55 37 -92t94 -37q53 0 91 37t38 92q0 51 -38 88t-91 37 q-57 0 -94 -37t-37 -88z" />
<glyph unicode="&#xb1;" horiz-adv-x="1294" d="M92 2l17 223h419v404h-436l17 225h419v467h238v-467h436l-12 -225h-424v-404h436l-12 -223h-1098z" />
<glyph unicode="&#xb2;" horiz-adv-x="1294" d="M104 205v166q-2 98 13.5 171.5t53.5 127t101.5 90.5t157.5 63l369 97q53 14 84.5 25t49 26.5t23 39t5.5 62.5v141q0 47 -14.5 62.5t-61.5 15.5h-451q-47 0 -65.5 -15t-18.5 -63v-120h-223v192q0 111 63.5 157t174.5 46h587q111 0 175.5 -46t64.5 -157v-291 q0 -86 -61.5 -143t-176.5 -88l-348 -100q-72 -20 -121 -37t-78.5 -43.5t-42 -69.5t-10.5 -113h826l-35 -196h-1041z" />
<glyph unicode="&#xb3;" horiz-adv-x="1300" d="M102 408v151h224v-82q0 -47 14 -61.5t61 -14.5h459q47 0 63.5 14.5t16.5 61.5v201q0 43 -18.5 56.5t-63.5 13.5h-563v176h551q59 0 78.5 21.5t19.5 62.5v209q0 47 -14.5 61t-61.5 14h-458q-47 0 -65.5 -14t-18.5 -61v-123h-220v192q0 111 63.5 157t174.5 46h602 q111 0 174.5 -46t63.5 -157v-266q0 -14 -3 -42t-18.5 -55.5t-45.5 -49t-83 -23.5q49 0 81 -10.5t50.5 -27.5t25.5 -39.5t7 -45.5v-319q0 -111 -64.5 -157t-175.5 -46h-618q-111 0 -174.5 46t-63.5 157z" />
<glyph unicode="&#xb4;" horiz-adv-x="782" d="M117 1591l260 295h309l-375 -295h-194z" />
<glyph unicode="&#xb6;" horiz-adv-x="1468" d="M82 1053q0 96 28.5 177t78 138t114 89t135.5 32h948v-164h-116v-1786h-213v1786h-258v-1786h-213v1022h-170q-68 0 -128.5 34t-106.5 98.5t-72.5 154.5t-26.5 205z" />
<glyph unicode="&#xb7;" horiz-adv-x="606" d="M102 737q0 43 15.5 80t42 64.5t62.5 43t79 15.5t80 -15.5t64.5 -43t43 -64.5t15.5 -80q0 -41 -15.5 -76.5t-43 -62.5t-64.5 -42t-80 -15q-86 0 -142.5 57t-56.5 139z" />
<glyph unicode="&#xb8;" horiz-adv-x="808" d="M119 -434l16 96q43 -23 88 -32t88 -9q61 0 103.5 23.5t42.5 76.5q0 59 -65.5 89t-170.5 34l88 162h111l-21 -108h52q106 0 174.5 -50.5t68.5 -136.5q0 -66 -29.5 -107.5t-74.5 -66t-97.5 -34t-95.5 -9.5q-86 0 -159.5 20.5t-118.5 51.5z" />
<glyph unicode="&#xb9;" horiz-adv-x="927" d="M102 205v196h258v867h-254v145q143 4 217 24.5t103 51.5h174v-1088h246v-196h-744z" />
<glyph unicode="&#xba;" horiz-adv-x="1230" d="M102 700v615q0 55 18.5 90t50.5 55.5t76 28.5t97 8h481q55 0 100.5 -8t78 -28.5t51 -56.5t18.5 -89v-615q0 -55 -18.5 -90t-51 -54t-77.5 -27.5t-101 -8.5h-481q-51 0 -95 8.5t-77 27.5t-51.5 54t-18.5 90zM344 786q0 -45 17.5 -60t60.5 -15h330q45 0 62 15t17 60v447 q0 49 -17 61.5t-62 12.5h-330q-43 0 -60.5 -13.5t-17.5 -60.5v-447z" />
<glyph unicode="&#xbb;" horiz-adv-x="1099" d="M92 -27v312l262 235v78l-262 244v309l483 -469v-246zM545 -27v312l262 235v78l-262 244v309l483 -469v-246z" />
<glyph unicode="&#xbc;" horiz-adv-x="2918" d="M102 205v196h258v867h-254v145q143 4 217 24.5t103 51.5h174v-1088h246v-196h-744zM889 -123l534 1735h219l-536 -1735h-217zM1497 291v262l803 731h358v-805h158v-188h-158v-291h-252v291h-909zM1733 479h673v633l-673 -610v-23z" />
<glyph unicode="&#xbd;" horiz-adv-x="2863" d="M102 205v196h258v867h-254v145q143 4 217 24.5t103 51.5h174v-1088h246v-196h-744zM889 -123l534 1735h219l-536 -1735h-217zM1673 0v166q-2 98 13.5 172t53.5 127t101.5 90t157.5 63l368 97q53 14 85 25.5t49.5 26.5t22.5 38.5t5 62.5v142q0 47 -14 62t-61 15h-451 q-47 0 -65.5 -15t-18.5 -62v-121h-223v192q0 111 63.5 157t173.5 46h588q111 0 175.5 -46t64.5 -157v-290q0 -86 -61.5 -143.5t-176.5 -88.5l-348 -100q-72 -20 -121 -36.5t-78.5 -43.5t-42 -70t-10.5 -112h825l-34 -197h-1041z" />
<glyph unicode="&#xbe;" horiz-adv-x="3276" d="M102 408v151h224v-82q0 -47 14 -61.5t61 -14.5h459q47 0 63.5 14.5t16.5 61.5v201q0 43 -18.5 56.5t-63.5 13.5h-563v176h551q59 0 78.5 21.5t19.5 62.5v209q0 47 -14.5 61t-61.5 14h-458q-47 0 -65.5 -14t-18.5 -61v-123h-220v192q0 111 63.5 157t174.5 46h602 q111 0 174.5 -46t63.5 -157v-266q0 -14 -3 -42t-18.5 -55.5t-45.5 -49t-83 -23.5q49 0 81 -10.5t50.5 -27.5t25.5 -39.5t7 -45.5v-319q0 -111 -64.5 -157t-175.5 -46h-618q-111 0 -174.5 46t-63.5 157zM1243 -123l535 1735h219l-537 -1735h-217zM1855 291v262l803 731h359 v-805h157v-188h-157v-291h-252v291h-910zM2091 479h674v633l-674 -610v-23z" />
<glyph unicode="&#xbf;" horiz-adv-x="1460" d="M82 -35v377q0 27 5 61.5t29.5 66.5t76 54.5t141.5 22.5h342q29 0 45 2t24.5 10t10.5 22.5t2 36.5v220h262v-361q0 -45 -25.5 -82t-101.5 -37h-422q-74 0 -88 -24.5t-14 -79.5v-152q0 -33 6 -52t21.5 -30.5t41 -15.5t66.5 -4h874l-35 -242h-1015q-74 0 -122 14.5t-76 42 t-38 65.5t-10 85zM717 1104q0 72 51 122t123 50t122 -50t50 -122t-50 -123t-122 -51t-123 51t-51 123z" />
<glyph unicode="&#xc0;" d="M57 0l490 1489h635l485 -1489h-311l-96 301h-795l-96 -301h-312zM376 1886h310l260 -295h-195zM528 514h668l-233 758h-199z" />
<glyph unicode="&#xc1;" d="M57 0l490 1489h635l485 -1489h-311l-96 301h-795l-96 -301h-312zM528 514h668l-233 758h-199zM744 1591l260 295h309l-375 -295h-194z" />
<glyph unicode="&#xc2;" d="M57 0l490 1489h635l485 -1489h-311l-96 301h-795l-96 -301h-312zM453 1591l276 295h244l272 -295h-235l-146 168h-28l-144 -168h-239zM528 514h668l-233 758h-199z" />
<glyph unicode="&#xc3;" d="M57 0l490 1489h635l485 -1489h-311l-96 301h-795l-96 -301h-312zM414 1609.5v16.5q0 117 51 174.5t137 57.5q55 0 120 -11.5t129.5 -27t124.5 -29.5t110 -21q39 -6 54 8.5t15 57.5v31h133q2 -16 3 -28.5t1 -27.5q0 -90 -38.5 -149t-143.5 -59q-47 0 -106.5 10t-122 24.5 t-127 29.5t-121.5 26q-16 4 -35.5 3t-30.5 -14q-10 -10 -12 -28.5t-2 -38.5v-23h-137q-2 10 -2 18.5zM528 514h668l-233 758h-199z" />
<glyph unicode="&#xc4;" d="M57 0l490 1489h635l485 -1489h-311l-96 301h-795l-96 -301h-312zM465 1739q0 68 46 113.5t112 45.5t112.5 -46t46.5 -113q0 -31 -12 -59.5t-33.5 -50t-51.5 -35t-62 -13.5q-66 0 -112 47t-46 111zM528 514h668l-233 758h-199zM913 1739q0 68 47.5 113.5t112.5 45.5 q66 0 112 -46t46 -113q0 -31 -12.5 -59.5t-34 -50t-50 -35t-61.5 -13.5q-66 0 -113 47.5t-47 110.5z" />
<glyph unicode="&#xc5;" d="M57 0l490 1489h635l485 -1489h-311l-96 301h-795l-96 -301h-312zM528 514h668l-233 758h-199zM622 1788q0 47 18.5 88t49.5 71.5t72 48t88 17.5q45 0 86 -17.5t71.5 -48t49 -71.5t18.5 -88t-18.5 -88t-49 -72t-71.5 -48.5t-86 -17.5q-47 0 -88 17.5t-72 48.5t-49.5 72 t-18.5 88zM758 1790q0 -37 26.5 -63.5t65.5 -26.5t65.5 26.5t26.5 63.5q0 35 -26.5 62.5t-65.5 27.5t-65.5 -27.5t-26.5 -62.5z" />
<glyph unicode="&#xc6;" horiz-adv-x="2441" d="M61 0l476 1489h1773l35 -238h-872v-417h862l-19 -211h-843v-396h872l-25 -227h-1142l-2 258h-734l-75 -258h-306zM500 459h676v792h-449z" />
<glyph unicode="&#xc7;" horiz-adv-x="1437" d="M102 248v1042q0 57 17.5 95t47.5 60.5t67.5 33t78.5 10.5h865q27 0 56.5 -7t54 -24.5t41 -46.5t16.5 -74v-307h-275v150q0 47 -12 60t-64 13h-503q-57 0 -74 -16t-17 -68v-862q0 -49 17.5 -64.5t70.5 -15.5h834l-41 -227h-479l-19 -102h52q106 0 174.5 -50.5t68.5 -136.5 q0 -66 -29.5 -107.5t-74.5 -66t-97.5 -34t-95.5 -9.5q-86 0 -159.5 20.5t-118.5 51.5l16 96q43 -23 88 -32t88 -9q61 0 103.5 23.5t42.5 76.5q0 59 -65.5 89t-170.5 34l82 156h-344q-139 0 -190.5 60.5t-51.5 187.5z" />
<glyph unicode="&#xc8;" horiz-adv-x="1372" d="M102 0v1489h1139l35 -238h-879v-415h850l-18 -213h-832v-396h879l-25 -227h-1149zM290 1886h310l260 -295h-195z" />
<glyph unicode="&#xc9;" horiz-adv-x="1372" d="M102 0v1489h1139l35 -238h-879v-415h850l-18 -213h-832v-396h879l-25 -227h-1149zM563 1591l260 295h309l-375 -295h-194z" />
<glyph unicode="&#xca;" horiz-adv-x="1372" d="M102 0v1489h1139l35 -238h-879v-415h850l-18 -213h-832v-396h879l-25 -227h-1149zM297 1591l276 295h244l272 -295h-235l-146 168h-28l-144 -168h-239z" />
<glyph unicode="&#xcb;" horiz-adv-x="1372" d="M102 0v1489h1139l35 -238h-879v-415h850l-18 -213h-832v-396h879l-25 -227h-1149zM303 1739q0 68 46 113.5t112 45.5t112.5 -46t46.5 -113q0 -31 -12 -59.5t-33.5 -50t-51.5 -35t-62 -13.5q-66 0 -112 47t-46 111zM751 1739q0 68 47.5 113.5t112.5 45.5q66 0 112 -46 t46 -113q0 -31 -12.5 -59.5t-34 -50t-50 -35t-61.5 -13.5q-66 0 -113 47.5t-47 110.5z" />
<glyph unicode="&#xcc;" horiz-adv-x="520" d="M-207 1886h310l260 -295h-195zM113 0v1489h295v-1489h-295z" />
<glyph unicode="&#xcd;" horiz-adv-x="520" d="M113 0v1489h295v-1489h-295zM160 1591l260 295h309l-375 -295h-194z" />
<glyph unicode="&#xce;" horiz-adv-x="520" d="M-133 1591l276 295h244l272 -295h-235l-146 168h-28l-144 -168h-239zM113 0v1489h295v-1489h-295z" />
<glyph unicode="&#xcf;" horiz-adv-x="520" d="M-121 1739q0 68 46 113.5t112 45.5t112.5 -46t46.5 -113q0 -31 -12 -59.5t-33.5 -50t-51.5 -35t-62 -13.5q-66 0 -112 47t-46 111zM113 0v1489h295v-1489h-295zM327 1739q0 68 47.5 113.5t112.5 45.5q66 0 112 -46t46 -113q0 -31 -12.5 -59.5t-34 -50t-50 -35 t-61.5 -13.5q-66 0 -113 47.5t-47 110.5z" />
<glyph unicode="&#xd0;" horiz-adv-x="1599" d="M49 641l10 188h88v660h1129q104 0 162.5 -56.5t58.5 -134.5v-1108q0 -37 -14.5 -70.5t-42 -60t-68.5 -43t-94 -16.5h-1131v641h-98zM442 225h650q39 0 61.5 7.5t33.5 21.5t14 35.5t3 48.5v823q0 55 -21.5 78t-80.5 23h-660v-433h349l-7 -188h-342v-416z" />
<glyph unicode="&#xd1;" horiz-adv-x="1570" d="M102 0v1489h236l854 -940v940h276v-1489h-276v158l-815 868v-1026h-275zM352 1609.5v16.5q0 117 51 174.5t137 57.5q55 0 120 -11.5t129.5 -27t124.5 -29.5t110 -21q39 -6 54 8.5t15 57.5v31h133q2 -16 3 -28.5t1 -27.5q0 -90 -38.5 -149t-143.5 -59q-47 0 -106.5 10 t-122 24.5t-127 29.5t-121.5 26q-16 4 -35.5 3t-30.5 -14q-10 -10 -12 -28.5t-2 -38.5v-23h-137q-2 10 -2 18.5z" />
<glyph unicode="&#xd2;" horiz-adv-x="1597" d="M102 264v961q0 74 21.5 125t61.5 81.5t96.5 44t126.5 13.5h782q70 0 126 -13.5t96 -44t61.5 -82t21.5 -124.5v-961q0 -74 -21.5 -125t-61.5 -81.5t-96 -44t-126 -13.5h-782q-70 0 -126.5 13.5t-96.5 44t-61.5 81.5t-21.5 125zM329 1886h310l260 -295h-195zM397 309 q0 -51 17.5 -67.5t70.5 -16.5h619q53 0 74.5 17.5t21.5 68.5v867q0 51 -21.5 68.5t-74.5 17.5h-619q-53 0 -70.5 -16.5t-17.5 -67.5v-871z" />
<glyph unicode="&#xd3;" horiz-adv-x="1597" d="M102 264v961q0 74 21.5 125t61.5 81.5t96.5 44t126.5 13.5h782q70 0 126 -13.5t96 -44t61.5 -82t21.5 -124.5v-961q0 -74 -21.5 -125t-61.5 -81.5t-96 -44t-126 -13.5h-782q-70 0 -126.5 13.5t-96.5 44t-61.5 81.5t-21.5 125zM397 309q0 -51 17.5 -67.5t70.5 -16.5h619 q53 0 74.5 17.5t21.5 68.5v867q0 51 -21.5 68.5t-74.5 17.5h-619q-53 0 -70.5 -16.5t-17.5 -67.5v-871zM666 1591l260 295h309l-375 -295h-194z" />
<glyph unicode="&#xd4;" horiz-adv-x="1597" d="M102 264v961q0 74 21.5 125t61.5 81.5t96.5 44t126.5 13.5h782q70 0 126 -13.5t96 -44t61.5 -82t21.5 -124.5v-961q0 -74 -21.5 -125t-61.5 -81.5t-96 -44t-126 -13.5h-782q-70 0 -126.5 13.5t-96.5 44t-61.5 81.5t-21.5 125zM397 309q0 -51 17.5 -67.5t70.5 -16.5h619 q53 0 74.5 17.5t21.5 68.5v867q0 51 -21.5 68.5t-74.5 17.5h-619q-53 0 -70.5 -16.5t-17.5 -67.5v-871zM402 1591l276 295h244l272 -295h-235l-146 168h-28l-144 -168h-239z" />
<glyph unicode="&#xd5;" horiz-adv-x="1597" d="M102 264v961q0 74 21.5 125t61.5 81.5t96.5 44t126.5 13.5h782q70 0 126 -13.5t96 -44t61.5 -82t21.5 -124.5v-961q0 -74 -21.5 -125t-61.5 -81.5t-96 -44t-126 -13.5h-782q-70 0 -126.5 13.5t-96.5 44t-61.5 81.5t-21.5 125zM361 1609.5v16.5q0 117 51 174.5t137 57.5 q55 0 120 -11.5t129.5 -27t124.5 -29.5t110 -21q39 -6 54 8.5t15 57.5v31h133q2 -16 3 -28.5t1 -27.5q0 -90 -38.5 -149t-143.5 -59q-47 0 -106.5 10t-122 24.5t-127 29.5t-121.5 26q-16 4 -35.5 3t-30.5 -14q-10 -10 -12 -28.5t-2 -38.5v-23h-137q-2 10 -2 18.5zM397 309 q0 -51 17.5 -67.5t70.5 -16.5h619q53 0 74.5 17.5t21.5 68.5v867q0 51 -21.5 68.5t-74.5 17.5h-619q-53 0 -70.5 -16.5t-17.5 -67.5v-871z" />
<glyph unicode="&#xd6;" horiz-adv-x="1597" d="M102 264v961q0 74 21.5 125t61.5 81.5t96.5 44t126.5 13.5h782q70 0 126 -13.5t96 -44t61.5 -82t21.5 -124.5v-961q0 -74 -21.5 -125t-61.5 -81.5t-96 -44t-126 -13.5h-782q-70 0 -126.5 13.5t-96.5 44t-61.5 81.5t-21.5 125zM397 309q0 -51 17.5 -67.5t70.5 -16.5h619 q53 0 74.5 17.5t21.5 68.5v867q0 51 -21.5 68.5t-74.5 17.5h-619q-53 0 -70.5 -16.5t-17.5 -67.5v-871zM418 1739q0 68 46 113.5t112 45.5t112.5 -46t46.5 -113q0 -31 -12 -59.5t-33.5 -50t-51.5 -35t-62 -13.5q-66 0 -112 47t-46 111zM866 1739q0 68 47.5 113.5t112.5 45.5 q66 0 112 -46t46 -113q0 -31 -12.5 -59.5t-34 -50t-50 -35t-61.5 -13.5q-66 0 -113 47.5t-47 110.5z" />
<glyph unicode="&#xd7;" horiz-adv-x="1234" d="M102 397l353 346l-353 344l170 173l346 -359l347 359l168 -173l-355 -344l355 -346l-168 -172l-347 357l-346 -357z" />
<glyph unicode="&#xd8;" horiz-adv-x="1597" d="M80 -121l1274 1718h164l-1274 -1718h-164zM102 264v961q0 74 21.5 125t61.5 81.5t96.5 44t126.5 13.5h782q70 0 126 -13.5t96 -44t61.5 -82t21.5 -124.5v-961q0 -74 -21.5 -125t-61.5 -81.5t-96 -44t-126 -13.5h-782q-70 0 -126.5 13.5t-96.5 44t-61.5 81.5t-21.5 125z M397 309q0 -51 17.5 -67.5t70.5 -16.5h619q53 0 74.5 17.5t21.5 68.5v867q0 51 -21.5 68.5t-74.5 17.5h-619q-53 0 -70.5 -16.5t-17.5 -67.5v-871z" />
<glyph unicode="&#xd9;" horiz-adv-x="1570" d="M102 293v1196h301v-1178q0 -51 18.5 -67.5t72.5 -16.5h577q53 0 74.5 17.5t21.5 68.5v1176h301v-1196q0 -150 -77.5 -221.5t-216.5 -71.5h-777q-139 0 -217 71.5t-78 221.5zM335 1886h310l260 -295h-195z" />
<glyph unicode="&#xda;" horiz-adv-x="1570" d="M102 293v1196h301v-1178q0 -51 18.5 -67.5t72.5 -16.5h577q53 0 74.5 17.5t21.5 68.5v1176h301v-1196q0 -150 -77.5 -221.5t-216.5 -71.5h-777q-139 0 -217 71.5t-78 221.5zM684 1591l260 295h309l-375 -295h-194z" />
<glyph unicode="&#xdb;" horiz-adv-x="1570" d="M102 293v1196h301v-1178q0 -51 18.5 -67.5t72.5 -16.5h577q53 0 74.5 17.5t21.5 68.5v1176h301v-1196q0 -150 -77.5 -221.5t-216.5 -71.5h-777q-139 0 -217 71.5t-78 221.5zM383 1591l276 295h244l272 -295h-235l-146 168h-28l-144 -168h-239z" />
<glyph unicode="&#xdc;" horiz-adv-x="1570" d="M102 293v1196h301v-1178q0 -51 18.5 -67.5t72.5 -16.5h577q53 0 74.5 17.5t21.5 68.5v1176h301v-1196q0 -150 -77.5 -221.5t-216.5 -71.5h-777q-139 0 -217 71.5t-78 221.5zM402 1739q0 68 46 113.5t112 45.5t112.5 -46t46.5 -113q0 -31 -12 -59.5t-33.5 -50t-51.5 -35 t-62 -13.5q-66 0 -112 47t-46 111zM850 1739q0 68 47.5 113.5t112.5 45.5q66 0 112 -46t46 -113q0 -31 -12.5 -59.5t-34 -50t-50 -35t-61.5 -13.5q-66 0 -113 47.5t-47 110.5z" />
<glyph unicode="&#xdd;" horiz-adv-x="1650" d="M61 1489h299l152 -766q6 -37 19.5 -50.5t60.5 -13.5h508l149 830h299l-270 -1329q-16 -74 -67.5 -117t-137.5 -43h-706l-60 227h623q47 0 66.5 11.5t29.5 52.5l33 151h-602q-27 0 -56.5 6.5t-56.5 23.5t-48.5 51t-31.5 89zM709 1591l260 295h309l-375 -295h-194z" />
<glyph unicode="&#xde;" horiz-adv-x="1511" d="M102 0v1489h291v-205h787q127 0 178 -57.5t51 -157.5v-684q0 -86 -55.5 -135t-196.5 -49h-764v-201h-291zM393 426h656q51 0 69.5 13.5t18.5 54.5v485q0 39 -13.5 59.5t-70.5 20.5h-660v-633z" />
<glyph unicode="&#xdf;" horiz-adv-x="1554" d="M102 0v1303q0 70 40 110.5t115 62t181.5 27.5t239.5 6q113 0 219.5 -4t188 -28.5t131 -75.5t49.5 -146q0 -68 -19.5 -131t-46.5 -127q-20 -49 -36.5 -102t-26.5 -104q-6 -33 -5 -69t35 -56q18 -10 45 -26.5t52.5 -33t48 -31t33.5 -22.5q76 -53 104.5 -107.5t28.5 -134.5 v-159q0 -45 -16.5 -75t-45 -46.5t-66.5 -23.5t-81 -7h-686l-33 213h596q33 0 45 11.5t12 58.5q0 37 -24 65q-20 23 -50 41.5t-63 35.5t-67.5 36.5t-65.5 44.5q-53 39 -72.5 81t-19.5 105q0 59 20.5 128t42.5 126q18 53 40 111.5t28 109.5q6 49 -7.5 77t-47 40t-90 15.5 t-138.5 3.5q-92 0 -151.5 -1.5t-93 -13.5t-46 -38.5t-12.5 -75.5v-1174h-285z" />
<glyph unicode="&#xe0;" d="M57 0l490 1489h635l485 -1489h-311l-96 301h-795l-96 -301h-312zM376 1886h310l260 -295h-195zM528 514h668l-233 758h-199z" />
<glyph unicode="&#xe1;" d="M57 0l490 1489h635l485 -1489h-311l-96 301h-795l-96 -301h-312zM528 514h668l-233 758h-199zM744 1591l260 295h309l-375 -295h-194z" />
<glyph unicode="&#xe2;" d="M57 0l490 1489h635l485 -1489h-311l-96 301h-795l-96 -301h-312zM453 1591l276 295h244l272 -295h-235l-146 168h-28l-144 -168h-239zM528 514h668l-233 758h-199z" />
<glyph unicode="&#xe3;" d="M57 0l490 1489h635l485 -1489h-311l-96 301h-795l-96 -301h-312zM414 1609.5v16.5q0 117 51 174.5t137 57.5q55 0 120 -11.5t129.5 -27t124.5 -29.5t110 -21q39 -6 54 8.5t15 57.5v31h133q2 -16 3 -28.5t1 -27.5q0 -90 -38.5 -149t-143.5 -59q-47 0 -106.5 10t-122 24.5 t-127 29.5t-121.5 26q-16 4 -35.5 3t-30.5 -14q-10 -10 -12 -28.5t-2 -38.5v-23h-137q-2 10 -2 18.5zM528 514h668l-233 758h-199z" />
<glyph unicode="&#xe4;" d="M57 0l490 1489h635l485 -1489h-311l-96 301h-795l-96 -301h-312zM465 1739q0 68 46 113.5t112 45.5t112.5 -46t46.5 -113q0 -31 -12 -59.5t-33.5 -50t-51.5 -35t-62 -13.5q-66 0 -112 47t-46 111zM528 514h668l-233 758h-199zM913 1739q0 68 47.5 113.5t112.5 45.5 q66 0 112 -46t46 -113q0 -31 -12.5 -59.5t-34 -50t-50 -35t-61.5 -13.5q-66 0 -113 47.5t-47 110.5z" />
<glyph unicode="&#xe5;" d="M57 0l490 1489h635l485 -1489h-311l-96 301h-795l-96 -301h-312zM528 514h668l-233 758h-199zM622 1788q0 47 18.5 88t49.5 71.5t72 48t88 17.5q45 0 86 -17.5t71.5 -48t49 -71.5t18.5 -88t-18.5 -88t-49 -72t-71.5 -48.5t-86 -17.5q-47 0 -88 17.5t-72 48.5t-49.5 72 t-18.5 88zM758 1790q0 -37 26.5 -63.5t65.5 -26.5t65.5 26.5t26.5 63.5q0 35 -26.5 62.5t-65.5 27.5t-65.5 -27.5t-26.5 -62.5z" />
<glyph unicode="&#xe6;" horiz-adv-x="2441" d="M61 0l476 1489h1773l35 -238h-872v-417h862l-19 -211h-843v-396h872l-25 -227h-1142l-2 258h-734l-75 -258h-306zM500 459h676v792h-449z" />
<glyph unicode="&#xe7;" horiz-adv-x="1437" d="M102 248v1042q0 57 17.5 95t47.5 60.5t67.5 33t78.5 10.5h865q27 0 56.5 -7t54 -24.5t41 -46.5t16.5 -74v-307h-275v150q0 47 -12 60t-64 13h-503q-57 0 -74 -16t-17 -68v-862q0 -49 17.5 -64.5t70.5 -15.5h834l-41 -227h-479l-19 -102h52q106 0 174.5 -50.5t68.5 -136.5 q0 -66 -29.5 -107.5t-74.5 -66t-97.5 -34t-95.5 -9.5q-86 0 -159.5 20.5t-118.5 51.5l16 96q43 -23 88 -32t88 -9q61 0 103.5 23.5t42.5 76.5q0 59 -65.5 89t-170.5 34l82 156h-344q-139 0 -190.5 60.5t-51.5 187.5z" />
<glyph unicode="&#xe8;" horiz-adv-x="1372" d="M102 0v1489h1139l35 -238h-879v-415h850l-18 -213h-832v-396h879l-25 -227h-1149zM290 1886h310l260 -295h-195z" />
<glyph unicode="&#xe9;" horiz-adv-x="1372" d="M102 0v1489h1139l35 -238h-879v-415h850l-18 -213h-832v-396h879l-25 -227h-1149zM563 1591l260 295h309l-375 -295h-194z" />
<glyph unicode="&#xea;" horiz-adv-x="1372" d="M102 0v1489h1139l35 -238h-879v-415h850l-18 -213h-832v-396h879l-25 -227h-1149zM297 1591l276 295h244l272 -295h-235l-146 168h-28l-144 -168h-239z" />
<glyph unicode="&#xeb;" horiz-adv-x="1372" d="M102 0v1489h1139l35 -238h-879v-415h850l-18 -213h-832v-396h879l-25 -227h-1149zM303 1739q0 68 46 113.5t112 45.5t112.5 -46t46.5 -113q0 -31 -12 -59.5t-33.5 -50t-51.5 -35t-62 -13.5q-66 0 -112 47t-46 111zM751 1739q0 68 47.5 113.5t112.5 45.5q66 0 112 -46 t46 -113q0 -31 -12.5 -59.5t-34 -50t-50 -35t-61.5 -13.5q-66 0 -113 47.5t-47 110.5z" />
<glyph unicode="&#xec;" horiz-adv-x="520" d="M-207 1886h310l260 -295h-195zM113 0v1489h295v-1489h-295z" />
<glyph unicode="&#xed;" horiz-adv-x="520" d="M113 0v1489h295v-1489h-295zM160 1591l260 295h309l-375 -295h-194z" />
<glyph unicode="&#xee;" horiz-adv-x="520" d="M-133 1591l276 295h244l272 -295h-235l-146 168h-28l-144 -168h-239zM113 0v1489h295v-1489h-295z" />
<glyph unicode="&#xef;" horiz-adv-x="520" d="M-121 1739q0 68 46 113.5t112 45.5t112.5 -46t46.5 -113q0 -31 -12 -59.5t-33.5 -50t-51.5 -35t-62 -13.5q-66 0 -112 47t-46 111zM113 0v1489h295v-1489h-295zM327 1739q0 68 47.5 113.5t112.5 45.5q66 0 112 -46t46 -113q0 -31 -12.5 -59.5t-34 -50t-50 -35 t-61.5 -13.5q-66 0 -113 47.5t-47 110.5z" />
<glyph unicode="&#xf0;" horiz-adv-x="1599" d="M49 641l10 188h88v660h1129q104 0 162.5 -56.5t58.5 -134.5v-1108q0 -37 -14.5 -70.5t-42 -60t-68.5 -43t-94 -16.5h-1131v641h-98zM442 225h650q39 0 61.5 7.5t33.5 21.5t14 35.5t3 48.5v823q0 55 -21.5 78t-80.5 23h-660v-433h349l-7 -188h-342v-416z" />
<glyph unicode="&#xf1;" horiz-adv-x="1570" d="M102 0v1489h236l854 -940v940h276v-1489h-276v158l-815 868v-1026h-275zM352 1609.5v16.5q0 117 51 174.5t137 57.5q55 0 120 -11.5t129.5 -27t124.5 -29.5t110 -21q39 -6 54 8.5t15 57.5v31h133q2 -16 3 -28.5t1 -27.5q0 -90 -38.5 -149t-143.5 -59q-47 0 -106.5 10 t-122 24.5t-127 29.5t-121.5 26q-16 4 -35.5 3t-30.5 -14q-10 -10 -12 -28.5t-2 -38.5v-23h-137q-2 10 -2 18.5z" />
<glyph unicode="&#xf2;" horiz-adv-x="1597" d="M102 264v961q0 74 21.5 125t61.5 81.5t96.5 44t126.5 13.5h782q70 0 126 -13.5t96 -44t61.5 -82t21.5 -124.5v-961q0 -74 -21.5 -125t-61.5 -81.5t-96 -44t-126 -13.5h-782q-70 0 -126.5 13.5t-96.5 44t-61.5 81.5t-21.5 125zM329 1886h310l260 -295h-195zM397 309 q0 -51 17.5 -67.5t70.5 -16.5h619q53 0 74.5 17.5t21.5 68.5v867q0 51 -21.5 68.5t-74.5 17.5h-619q-53 0 -70.5 -16.5t-17.5 -67.5v-871z" />
<glyph unicode="&#xf3;" horiz-adv-x="1597" d="M102 264v961q0 74 21.5 125t61.5 81.5t96.5 44t126.5 13.5h782q70 0 126 -13.5t96 -44t61.5 -82t21.5 -124.5v-961q0 -74 -21.5 -125t-61.5 -81.5t-96 -44t-126 -13.5h-782q-70 0 -126.5 13.5t-96.5 44t-61.5 81.5t-21.5 125zM397 309q0 -51 17.5 -67.5t70.5 -16.5h619 q53 0 74.5 17.5t21.5 68.5v867q0 51 -21.5 68.5t-74.5 17.5h-619q-53 0 -70.5 -16.5t-17.5 -67.5v-871zM666 1591l260 295h309l-375 -295h-194z" />
<glyph unicode="&#xf4;" horiz-adv-x="1597" d="M102 264v961q0 74 21.5 125t61.5 81.5t96.5 44t126.5 13.5h782q70 0 126 -13.5t96 -44t61.5 -82t21.5 -124.5v-961q0 -74 -21.5 -125t-61.5 -81.5t-96 -44t-126 -13.5h-782q-70 0 -126.5 13.5t-96.5 44t-61.5 81.5t-21.5 125zM397 309q0 -51 17.5 -67.5t70.5 -16.5h619 q53 0 74.5 17.5t21.5 68.5v867q0 51 -21.5 68.5t-74.5 17.5h-619q-53 0 -70.5 -16.5t-17.5 -67.5v-871zM402 1591l276 295h244l272 -295h-235l-146 168h-28l-144 -168h-239z" />
<glyph unicode="&#xf5;" horiz-adv-x="1597" d="M102 264v961q0 74 21.5 125t61.5 81.5t96.5 44t126.5 13.5h782q70 0 126 -13.5t96 -44t61.5 -82t21.5 -124.5v-961q0 -74 -21.5 -125t-61.5 -81.5t-96 -44t-126 -13.5h-782q-70 0 -126.5 13.5t-96.5 44t-61.5 81.5t-21.5 125zM361 1609.5v16.5q0 117 51 174.5t137 57.5 q55 0 120 -11.5t129.5 -27t124.5 -29.5t110 -21q39 -6 54 8.5t15 57.5v31h133q2 -16 3 -28.5t1 -27.5q0 -90 -38.5 -149t-143.5 -59q-47 0 -106.5 10t-122 24.5t-127 29.5t-121.5 26q-16 4 -35.5 3t-30.5 -14q-10 -10 -12 -28.5t-2 -38.5v-23h-137q-2 10 -2 18.5zM397 309 q0 -51 17.5 -67.5t70.5 -16.5h619q53 0 74.5 17.5t21.5 68.5v867q0 51 -21.5 68.5t-74.5 17.5h-619q-53 0 -70.5 -16.5t-17.5 -67.5v-871z" />
<glyph unicode="&#xf6;" horiz-adv-x="1597" d="M102 264v961q0 74 21.5 125t61.5 81.5t96.5 44t126.5 13.5h782q70 0 126 -13.5t96 -44t61.5 -82t21.5 -124.5v-961q0 -74 -21.5 -125t-61.5 -81.5t-96 -44t-126 -13.5h-782q-70 0 -126.5 13.5t-96.5 44t-61.5 81.5t-21.5 125zM397 309q0 -51 17.5 -67.5t70.5 -16.5h619 q53 0 74.5 17.5t21.5 68.5v867q0 51 -21.5 68.5t-74.5 17.5h-619q-53 0 -70.5 -16.5t-17.5 -67.5v-871zM418 1739q0 68 46 113.5t112 45.5t112.5 -46t46.5 -113q0 -31 -12 -59.5t-33.5 -50t-51.5 -35t-62 -13.5q-66 0 -112 47t-46 111zM866 1739q0 68 47.5 113.5t112.5 45.5 q66 0 112 -46t46 -113q0 -31 -12.5 -59.5t-34 -50t-50 -35t-61.5 -13.5q-66 0 -113 47.5t-47 110.5z" />
<glyph unicode="&#xf7;" horiz-adv-x="1316" d="M102 664l11 227h1101l-12 -227h-1100zM461 365q0 39 15.5 74.5t41 62t60 42t75.5 15.5q39 0 75 -15.5t62.5 -42t42 -62.5t15.5 -74q0 -41 -15.5 -76t-42 -60.5t-62.5 -41t-75 -15.5q-80 0 -136 56.5t-56 136.5zM461 1188q0 39 15.5 74.5t41 62.5t60 42t75.5 15 q39 0 75 -15t62.5 -42t42 -62.5t15.5 -74.5q0 -41 -15.5 -76t-42 -60.5t-62.5 -41t-75 -15.5q-41 0 -75.5 15.5t-60 41t-41 60.5t-15.5 76z" />
<glyph unicode="&#xf8;" horiz-adv-x="1597" d="M80 -121l1274 1718h164l-1274 -1718h-164zM102 264v961q0 74 21.5 125t61.5 81.5t96.5 44t126.5 13.5h782q70 0 126 -13.5t96 -44t61.5 -82t21.5 -124.5v-961q0 -74 -21.5 -125t-61.5 -81.5t-96 -44t-126 -13.5h-782q-70 0 -126.5 13.5t-96.5 44t-61.5 81.5t-21.5 125z M397 309q0 -51 17.5 -67.5t70.5 -16.5h619q53 0 74.5 17.5t21.5 68.5v867q0 51 -21.5 68.5t-74.5 17.5h-619q-53 0 -70.5 -16.5t-17.5 -67.5v-871z" />
<glyph unicode="&#xf9;" horiz-adv-x="1570" d="M102 293v1196h301v-1178q0 -51 18.5 -67.5t72.5 -16.5h577q53 0 74.5 17.5t21.5 68.5v1176h301v-1196q0 -150 -77.5 -221.5t-216.5 -71.5h-777q-139 0 -217 71.5t-78 221.5zM335 1886h310l260 -295h-195z" />
<glyph unicode="&#xfa;" horiz-adv-x="1570" d="M102 293v1196h301v-1178q0 -51 18.5 -67.5t72.5 -16.5h577q53 0 74.5 17.5t21.5 68.5v1176h301v-1196q0 -150 -77.5 -221.5t-216.5 -71.5h-777q-139 0 -217 71.5t-78 221.5zM684 1591l260 295h309l-375 -295h-194z" />
<glyph unicode="&#xfb;" horiz-adv-x="1570" d="M102 293v1196h301v-1178q0 -51 18.5 -67.5t72.5 -16.5h577q53 0 74.5 17.5t21.5 68.5v1176h301v-1196q0 -150 -77.5 -221.5t-216.5 -71.5h-777q-139 0 -217 71.5t-78 221.5zM383 1591l276 295h244l272 -295h-235l-146 168h-28l-144 -168h-239z" />
<glyph unicode="&#xfc;" horiz-adv-x="1570" d="M102 293v1196h301v-1178q0 -51 18.5 -67.5t72.5 -16.5h577q53 0 74.5 17.5t21.5 68.5v1176h301v-1196q0 -150 -77.5 -221.5t-216.5 -71.5h-777q-139 0 -217 71.5t-78 221.5zM402 1739q0 68 46 113.5t112 45.5t112.5 -46t46.5 -113q0 -31 -12 -59.5t-33.5 -50t-51.5 -35 t-62 -13.5q-66 0 -112 47t-46 111zM850 1739q0 68 47.5 113.5t112.5 45.5q66 0 112 -46t46 -113q0 -31 -12.5 -59.5t-34 -50t-50 -35t-61.5 -13.5q-66 0 -113 47.5t-47 110.5z" />
<glyph unicode="&#xfd;" horiz-adv-x="1650" d="M61 1489h299l152 -766q6 -37 19.5 -50.5t60.5 -13.5h508l149 830h299l-270 -1329q-16 -74 -67.5 -117t-137.5 -43h-706l-60 227h623q47 0 66.5 11.5t29.5 52.5l33 151h-602q-27 0 -56.5 6.5t-56.5 23.5t-48.5 51t-31.5 89zM709 1591l260 295h309l-375 -295h-194z" />
<glyph unicode="&#xfe;" horiz-adv-x="1511" d="M102 0v1489h291v-205h787q127 0 178 -57.5t51 -157.5v-684q0 -86 -55.5 -135t-196.5 -49h-764v-201h-291zM393 426h656q51 0 69.5 13.5t18.5 54.5v485q0 39 -13.5 59.5t-70.5 20.5h-660v-633z" />
<glyph unicode="&#xff;" horiz-adv-x="1609" d="M61 1489h299l152 -766q6 -37 19.5 -50.5t60.5 -13.5h508l149 830h299l-270 -1329q-16 -74 -67.5 -117t-137.5 -43h-706l-60 227h623q47 0 66.5 11.5t29.5 52.5l33 151h-602q-27 0 -56.5 6.5t-56.5 23.5t-48.5 51t-31.5 89zM430 1739q0 68 46 113.5t112 45.5t112.5 -46 t46.5 -113q0 -31 -12 -59.5t-33.5 -50t-51.5 -35t-62 -13.5q-66 0 -112 47t-46 111zM878 1739q0 68 47.5 113.5t112.5 45.5q66 0 112 -46t46 -113q0 -31 -12.5 -59.5t-34 -50t-50 -35t-61.5 -13.5q-66 0 -113 47.5t-47 110.5z" />
<glyph unicode="&#x152;" horiz-adv-x="2455" d="M102 264v961q0 74 21.5 125t61.5 81.5t96.5 44t126.5 13.5h1931l35 -238h-879v-415h850l-18 -213h-832v-396h879l-25 -227h-1941q-70 0 -126.5 13.5t-96.5 44t-61.5 81.5t-21.5 125zM397 301q0 -51 17.5 -67.5t70.5 -16.5h715v1055h-715q-53 0 -70.5 -16.5t-17.5 -67.5 v-887z" />
<glyph unicode="&#x153;" horiz-adv-x="2258" d="M102 233v646q0 127 72 181t193 54h669q29 0 56.5 -4t50.5 -18q23 14 50.5 18t55.5 4h729q86 0 132.5 -50t46.5 -124v-387q0 -78 -38 -116t-139 -38h-696v-102q0 -47 19.5 -65.5t78.5 -18.5h725l-47 -213h-811q-29 0 -56.5 4t-49.5 19q-23 -14 -50.5 -18.5t-56.5 -4.5 h-682q-121 0 -186.5 53t-65.5 180zM385 272q0 -47 23.5 -59t66.5 -12h428q49 0 71.5 12t22.5 59v566q0 49 -19.5 62t-68.5 13h-440q-43 0 -63.5 -14t-20.5 -61v-566zM1284 561h512q33 0 50.5 6t24.5 16.5t8 25t1 30.5v203q0 29 -9 50t-54 21h-461q-51 0 -61.5 -20.5 t-10.5 -56.5v-275z" />
<glyph unicode="&#x178;" horiz-adv-x="1609" d="M61 1489h299l152 -766q6 -37 19.5 -50.5t60.5 -13.5h508l149 830h299l-270 -1329q-16 -74 -67.5 -117t-137.5 -43h-706l-60 227h623q47 0 66.5 11.5t29.5 52.5l33 151h-602q-27 0 -56.5 6.5t-56.5 23.5t-48.5 51t-31.5 89zM430 1739q0 68 46 113.5t112 45.5t112.5 -46 t46.5 -113q0 -31 -12 -59.5t-33.5 -50t-51.5 -35t-62 -13.5q-66 0 -112 47t-46 111zM878 1739q0 68 47.5 113.5t112.5 45.5q66 0 112 -46t46 -113q0 -31 -12.5 -59.5t-34 -50t-50 -35t-61.5 -13.5q-66 0 -113 47.5t-47 110.5z" />
<glyph unicode="&#x2c6;" horiz-adv-x="1101" d="M154 1591l276 295h244l272 -295h-235l-146 168h-28l-144 -168h-239z" />
<glyph unicode="&#x2dc;" horiz-adv-x="1116" d="M119 1609.5v16.5q0 117 51 174.5t137 57.5q55 0 120 -11.5t129.5 -27t124.5 -29.5t110 -21q39 -6 54 8.5t15 57.5v31h133q2 -16 3 -28.5t1 -27.5q0 -90 -38.5 -149t-143.5 -59q-47 0 -106.5 10t-122 24.5t-127 29.5t-121.5 26q-16 4 -35.5 3t-30.5 -14q-10 -10 -12 -28.5 t-2 -38.5v-23h-137q-2 10 -2 18.5z" />
<glyph unicode="&#x2000;" horiz-adv-x="1006" />
<glyph unicode="&#x2001;" horiz-adv-x="2013" />
<glyph unicode="&#x2002;" horiz-adv-x="1006" />
<glyph unicode="&#x2003;" horiz-adv-x="2013" />
<glyph unicode="&#x2004;" horiz-adv-x="671" />
<glyph unicode="&#x2005;" horiz-adv-x="503" />
<glyph unicode="&#x2006;" horiz-adv-x="335" />
<glyph unicode="&#x2007;" horiz-adv-x="335" />
<glyph unicode="&#x2008;" horiz-adv-x="251" />
<glyph unicode="&#x2009;" horiz-adv-x="402" />
<glyph unicode="&#x200a;" horiz-adv-x="111" />
<glyph unicode="&#x2010;" horiz-adv-x="935" d="M102 571l27 222h705l-25 -222h-707z" />
<glyph unicode="&#x2011;" horiz-adv-x="935" d="M102 571l27 222h705l-25 -222h-707z" />
<glyph unicode="&#x2012;" horiz-adv-x="935" d="M102 571l27 222h705l-25 -222h-707z" />
<glyph unicode="&#x2013;" horiz-adv-x="1271" d="M102 571l17 222h1050l-14 -222h-1053z" />
<glyph unicode="&#x2014;" horiz-adv-x="1687" d="M102 571l17 222h1466l-14 -222h-1469z" />
<glyph unicode="&#x2018;" horiz-adv-x="550" d="M72 1239q0 35 11 82t32.5 97t51.5 98.5t69 87.5l55 -25q-23 -35 -37 -84t-18 -96q57 12 101 1t72.5 -37t44 -64.5t15.5 -81.5q0 -84 -57.5 -139.5t-141.5 -53.5q-92 2 -145 63.5t-53 151.5z" />
<glyph unicode="&#x2019;" horiz-adv-x="550" d="M82 1358q0 84 57.5 139t141.5 53q92 -2 145 -63.5t53 -151.5q0 -35 -11 -82t-32.5 -97t-51.5 -98t-69 -87l-55 24q23 35 37 84t18 97q-55 -12 -98 -1t-73.5 36.5t-46 64.5t-15.5 82z" />
<glyph unicode="&#x201a;" horiz-adv-x="595" d="M106 180q0 41 15.5 76t43 60.5t63.5 39t77 13.5q90 -2 143.5 -62.5t53.5 -148.5q0 -35 -12.5 -81t-34 -95.5t-52 -97.5t-67.5 -85l-53 23q20 35 34.5 83t18.5 95q-106 -18 -168 37t-62 143z" />
<glyph unicode="&#x201c;" horiz-adv-x="1052" d="M72 1239q0 35 11 82t32.5 97t52.5 98.5t68 87.5l55 -25q-20 -35 -35.5 -84t-19.5 -96q61 10 105 0t72.5 -37t42 -64.5t13.5 -80.5q0 -41 -15.5 -77t-42 -61.5t-62.5 -40t-77 -14.5q-92 2 -146 63.5t-54 151.5zM563 1239q0 35 11.5 82t33 97t51 98.5t68.5 87.5l55 -25 q-23 -35 -37 -84t-18 -96q57 12 101 1t73 -37t44.5 -64.5t15.5 -81.5q0 -84 -57.5 -139.5t-141.5 -53.5q-92 2 -145.5 63.5t-53.5 151.5z" />
<glyph unicode="&#x201d;" horiz-adv-x="1052" d="M92 1358q0 84 57.5 139t141.5 53q92 -2 145 -63.5t53 -151.5q0 -35 -11 -82t-32.5 -97t-51 -98t-68.5 -87l-56 24q23 35 37.5 84t18.5 97q-55 -12 -98.5 -1t-74 36.5t-46 64.5t-15.5 82zM584 1358q0 41 15 76.5t42 61.5t62.5 40t76.5 14q92 -2 146.5 -63.5t54.5 -151.5 q0 -35 -11.5 -82t-33 -97t-52 -98t-67.5 -87l-55 24q20 35 35.5 84t19.5 97q-55 -12 -98 -1t-73 36.5t-46 64.5t-16 82z" />
<glyph unicode="&#x201e;" horiz-adv-x="1107" d="M106 180q0 41 15.5 76t43 60.5t63.5 39t77 13.5q90 -2 143.5 -62.5t53.5 -148.5q0 -35 -12.5 -81t-34 -95.5t-52 -97.5t-67.5 -85l-53 23q20 35 34.5 83t18.5 95q-106 -18 -168 37t-62 143zM618 180q0 41 15.5 76t43 60.5t63.5 39t77 13.5q90 -2 143.5 -62.5t53.5 -148.5 q0 -35 -12.5 -81t-34 -95.5t-52 -97.5t-67.5 -85l-53 23q20 35 34.5 83t18.5 95q-106 -18 -168 37t-62 143z" />
<glyph unicode="&#x2022;" horiz-adv-x="892" d="M123 719v49q0 61 23.5 116.5t63.5 95.5t95 63.5t117 23.5h47q63 0 117.5 -23.5t95.5 -63.5t64.5 -95.5t23.5 -116.5v-49q0 -61 -23.5 -116.5t-64.5 -95.5t-95.5 -63.5t-117.5 -23.5h-47q-61 0 -116.5 23.5t-95.5 63.5t-63.5 95t-23.5 117z" />
<glyph unicode="&#x2026;" horiz-adv-x="1761" d="M102 176q0 43 15.5 80t42 64.5t62.5 43t79 15.5t80 -15.5t64.5 -43t43 -64.5t15.5 -80q0 -41 -15.5 -77t-43 -62.5t-64.5 -41.5t-80 -15q-86 0 -142.5 57t-56.5 139zM680 176q0 43 15.5 80t42 64.5t62.5 43t79 15.5t79.5 -15.5t64.5 -43t43 -64.5t15 -80q0 -41 -15 -77 t-43 -62.5t-64.5 -41.5t-79.5 -15q-86 0 -142.5 57t-56.5 139zM1257 176q0 43 15.5 80t42 64.5t62.5 43t79 15.5t80 -15.5t64.5 -43t43 -64.5t15.5 -80q0 -41 -15.5 -77t-43 -62.5t-64.5 -41.5t-80 -15q-86 0 -142.5 57t-56.5 139z" />
<glyph unicode="&#x202f;" horiz-adv-x="402" />
<glyph unicode="&#x2039;" horiz-adv-x="647" d="M72 436v246l483 469v-309l-262 -244v-78q66 -59 132.5 -117.5t129.5 -117.5v-312z" />
<glyph unicode="&#x203a;" horiz-adv-x="647" d="M92 -27v312l262 235v78l-262 244v309l483 -469v-246z" />
<glyph unicode="&#x205f;" horiz-adv-x="503" />
<glyph unicode="&#x20ac;" horiz-adv-x="1439" d="M61 504v149h97v127h-97v152h97v381q0 72 49 124t153 52h961l35 -238h-797q-59 0 -78.5 -18.5t-19.5 -67.5v-233h823l-41 -152h-782v-127h717l-43 -149h-674v-197q0 -45 20.5 -62.5t59.5 -17.5h817l-37 -227h-918q-135 0 -190 54.5t-55 172.5v277h-97z" />
<glyph unicode="&#x2122;" horiz-adv-x="1353" d="M61 1389v100h469v-100h-172v-648h-122v648h-175zM608 741v748h166l178 -520l174 520h166v-748h-121v533l-176 -516h-88l-176 516v-533h-123z" />
<glyph unicode="&#x25fc;" horiz-adv-x="1484" d="M0 0v1485h1485v-1485h-1485z" />
</font>
</defs>
</svg>
